<svg width="128" height="128" viewBox="0 0 128 128" xmlns="http://www.w3.org/2000/svg">
  <defs>
    <linearGradient id="gradient" x1="0%" y1="0%" x2="100%" y2="100%">
      <stop offset="0%" style="stop-color:#007ACC;stop-opacity:1" />
      <stop offset="100%" style="stop-color:#0099FF;stop-opacity:1" />
    </linearGradient>
  </defs>
  
  <!-- Background circle -->
  <circle cx="64" cy="64" r="60" fill="url(#gradient)" stroke="#005A9E" stroke-width="2"/>
  
  <!-- Neural network nodes -->
  <circle cx="32" cy="32" r="6" fill="#FFFFFF" opacity="0.9"/>
  <circle cx="64" cy="24" r="6" fill="#FFFFFF" opacity="0.9"/>
  <circle cx="96" cy="32" r="6" fill="#FFFFFF" opacity="0.9"/>
  
  <circle cx="24" cy="64" r="6" fill="#FFFFFF" opacity="0.9"/>
  <circle cx="64" cy="64" r="8" fill="#FFFFFF" opacity="1"/>
  <circle cx="104" cy="64" r="6" fill="#FFFFFF" opacity="0.9"/>
  
  <circle cx="32" cy="96" r="6" fill="#FFFFFF" opacity="0.9"/>
  <circle cx="64" cy="104" r="6" fill="#FFFFFF" opacity="0.9"/>
  <circle cx="96" cy="96" r="6" fill="#FFFFFF" opacity="0.9"/>
  
  <!-- Neural network connections -->
  <line x1="32" y1="32" x2="64" y2="24" stroke="#FFFFFF" stroke-width="2" opacity="0.6"/>
  <line x1="64" y1="24" x2="96" y2="32" stroke="#FFFFFF" stroke-width="2" opacity="0.6"/>
  <line x1="32" y1="32" x2="24" y2="64" stroke="#FFFFFF" stroke-width="2" opacity="0.6"/>
  <line x1="96" y1="32" x2="104" y2="64" stroke="#FFFFFF" stroke-width="2" opacity="0.6"/>
  <line x1="24" y1="64" x2="64" y2="64" stroke="#FFFFFF" stroke-width="3" opacity="0.8"/>
  <line x1="64" y1="64" x2="104" y2="64" stroke="#FFFFFF" stroke-width="3" opacity="0.8"/>
  <line x1="32" y1="32" x2="64" y2="64" stroke="#FFFFFF" stroke-width="2" opacity="0.6"/>
  <line x1="64" y1="24" x2="64" y2="64" stroke="#FFFFFF" stroke-width="2" opacity="0.6"/>
  <line x1="96" y1="32" x2="64" y2="64" stroke="#FFFFFF" stroke-width="2" opacity="0.6"/>
  <line x1="64" y1="64" x2="32" y2="96" stroke="#FFFFFF" stroke-width="2" opacity="0.6"/>
  <line x1="64" y1="64" x2="64" y2="104" stroke="#FFFFFF" stroke-width="2" opacity="0.6"/>
  <line x1="64" y1="64" x2="96" y2="96" stroke="#FFFFFF" stroke-width="2" opacity="0.6"/>
  <line x1="24" y1="64" x2="32" y2="96" stroke="#FFFFFF" stroke-width="2" opacity="0.6"/>
  <line x1="104" y1="64" x2="96" y2="96" stroke="#FFFFFF" stroke-width="2" opacity="0.6"/>
  <line x1="32" y1="96" x2="64" y2="104" stroke="#FFFFFF" stroke-width="2" opacity="0.6"/>
  <line x1="64" y1="104" x2="96" y2="96" stroke="#FFFFFF" stroke-width="2" opacity="0.6"/>
</svg>
